<svg width="400" height="280" viewBox="0 0 400 280" fill="none" xmlns="http://www.w3.org/2000/svg">
  <rect width="400" height="280" rx="8" fill="#F9FAFB"/>
  <!-- Abstract people / collaboration -->
  <circle cx="120" cy="100" r="28" fill="#5925DC" opacity="0.2"/>
  <circle cx="280" cy="100" r="28" fill="#0F71BB" opacity="0.2"/>
  <circle cx="200" cy="180" r="32" fill="#5925DC" opacity="0.15"/>
  <!-- Server/tech shapes -->
  <rect x="160" y="80" width="80" height="50" rx="4" fill="#5925DC" opacity="0.3"/>
  <rect x="170" y="90" width="25" height="8" rx="2" fill="white" opacity="0.8"/>
  <rect x="205" y="90" width="25" height="8" rx="2" fill="white" opacity="0.8"/>
  <!-- Gear -->
  <circle cx="320" cy="160" r="24" fill="#0F71BB" opacity="0.25"/>
  <path d="M320 142v-4l3 1 1-3 4 0-1 3 3 1 3-1-1-3 4 0-1 3 3-1v4l-3-1-1 3-4 0 1-3-3-1z" fill="white" opacity="0.7"/>
  <!-- Lock -->
  <rect x="80" y="150" width="36" height="28" rx="4" fill="#5925DC" opacity="0.3"/>
  <path d="M92 150V146a8 8 0 0116 0v4" stroke="white" stroke-width="2" fill="none" opacity="0.8"/>
  <!-- Network nodes -->
  <circle cx="200" cy="220" r="6" fill="#5925DC"/>
  <circle cx="240" cy="200" r="6" fill="#0F71BB"/>
  <circle cx="160" cy="200" r="6" fill="#5925DC"/>
  <line x1="200" y1="214" x2="234" y2="206" stroke="#98A2B3" stroke-width="1" opacity="0.6"/>
  <line x1="200" y1="214" x2="166" y2="206" stroke="#98A2B3" stroke-width="1" opacity="0.6"/>
</svg>
