<svg width="24" height="24" viewBox="0 0 24 24" fill="none" xmlns="http://www.w3.org/2000/svg">
<path d="M5.17414 8.41308C5.17414 8.41308 4.54232 9.33755 5.36988 10.533C5.36988 10.533 5.50037 9.92422 6.8073 9.92422H8.37587C9.85722 9.92422 10.9677 8.45858 10.2707 6.94674C10.2707 6.94674 11.3159 7.0598 11.6655 6.38282C12.0137 5.70652 11.6435 5.43559 11.1209 5.43559H8.48506C8.48506 5.92092 7.59225 5.98848 7.59225 5.43559H6.11089C6.11089 5.43559 4.99971 5.43559 4.9784 6.40557C4.9784 6.40557 5.2294 6.2477 5.47907 6.22564V6.48416C5.47907 6.48416 5.17414 6.54069 5.03233 6.61997C4.89119 6.69856 4.68413 6.91296 4.88054 7.46585C5.07627 8.01805 5.15284 8.20971 5.15284 8.20971C5.15284 8.20971 5.46908 7.92705 5.98107 7.92705H6.58027C7.64684 7.92705 7.4511 8.99837 6.38386 8.99837C5.31662 8.99837 5.17547 8.41239 5.17547 8.41239L5.17414 8.41308Z" fill="#DB0000"/>
<path d="M10.7394 7.29696C10.7394 7.29696 11.0989 7.31971 11.3599 7.08325C11.3599 7.08325 13.7234 8.98942 10.2167 12.8231C6.70942 16.6575 9.42113 19.1393 9.42113 19.1393C9.42113 19.1393 8.78997 19.7701 9.14883 21C9.14883 21 7.69011 20.1472 6.57427 18.6988C4.96175 16.6058 3.9764 13.4036 8.40449 10.8494C8.40449 10.8494 11.3273 9.32722 10.7394 7.29696Z" fill="#DB0000"/>
<path d="M7.12697 5.07507C7.12697 5.07507 7.59901 4.20299 8.69488 4.20299C9.55906 4.20299 9.75613 3.74385 9.75613 3.74385C9.75613 3.74385 10.133 3 12.0358 3C13.7794 3 14.9545 3.60184 15.9053 4.40567C15.9053 4.40567 13.342 2.7594 10.8154 5.07507H7.12697Z" fill="#DB0000"/>
<path d="M17.7861 10.5936C17.7135 7.87188 15.6802 4.95507 11.3094 5.12052C15.579 1.37644 22.9851 9.736 16.8853 14.1281C16.8853 14.1281 17.9059 12.6204 17.7861 10.5936Z" fill="#DB0000"/>
<path d="M11.9631 5.42114C17.2927 5.25568 19.1955 11.8718 15.7534 14.8493L12.2973 16.5789C12.2973 16.5789 11.8473 15.0754 13.5177 13.3154C15.1882 11.5567 16.7993 8.2635 12.1822 6.09812C12.1822 6.09812 12.2694 5.64726 11.9645 5.42182L11.9631 5.42114Z" fill="#DB0000"/>
<path d="M11.6868 6.90954C11.6868 6.90954 11.9485 6.65377 12.0357 6.44351C15.9998 8.15734 15.3759 11.0604 13.0084 13.496C11.5564 15.0444 12.0064 16.7141 12.0064 16.7141C12.0064 16.7141 10.2354 17.8564 9.62493 18.8491C9.62493 18.8491 7.06035 16.5879 10.6123 12.8349C14.0976 9.15075 11.6868 6.90954 11.6868 6.90954Z" fill="#DB0000"/>
</svg>
